<?xml version="1.0" encoding="UTF-8"?>
<svg version="1.1" xmlns="http://www.w3.org/2000/svg" width="500" height="500">
<path d="M0 0 C165 0 330 0 500 0 C500 165 500 330 500 500 C335 500 170 500 0 500 C0 335 0 170 0 0 Z " fill="#FEFEFE" transform="translate(0,0)"/>
<path d="M0 0 C4.22130003 1.64546964 7.04094913 4.7715731 10.16213989 7.92835999 C10.77667931 8.54189612 11.39121874 9.15543226 12.02438056 9.7875604 C14.0850006 11.84722686 16.13838339 13.91396051 18.19189453 15.98071289 C19.66661628 17.45763552 21.14178599 18.93411097 22.61737061 20.41017151 C25.79490072 23.59063664 28.96924623 26.77423502 32.14117813 29.96028328 C37.15255088 34.99389096 42.17097359 40.02042951 47.19039917 45.04600525 C55.12485765 52.99184903 63.05462905 60.94235162 70.9823817 68.89488548 C85.18931218 83.14614415 99.40183898 97.39181653 113.61956108 111.6323089 C118.61260111 116.63377732 123.6028185 121.63804061 128.59081674 126.64453709 C131.68795127 129.75228398 134.78709017 132.85802624 137.88674164 135.96326256 C139.32841933 137.40842265 140.76922404 138.8544542 142.20911026 140.30139923 C144.16774241 142.26942468 146.12938716 144.23439659 148.09182739 146.19862366 C148.66691548 146.77798882 149.24200356 147.35735398 149.83451855 147.95427567 C152.64727041 150.83318868 152.64727041 150.83318868 156 153 C156 200.52 156 248.04 156 297 C152.7 297 149.4 297 146 297 C146.32278427 295.59390976 146.64556854 294.18781952 146.97813416 292.73912048 C151.06070708 274.2669272 153.50873252 255.78641392 154.9375 236.9375 C155.02694689 235.79559936 155.02694689 235.79559936 155.11820078 234.63063002 C158.27111831 193.1153531 150.78887953 160.63937919 123.40810686 128.52871019 C106.55049604 109.18221856 88.18345581 91.30703728 69.4375 73.8125 C68.53589315 72.96943723 67.6342863 72.12637446 66.70535803 71.25776434 C43.05040484 49.16344496 18.8283981 27.76511476 -6 7 C-4.47427344 3.67364118 -3.06655496 2.04436998 0 0 Z " fill="#7599F2" transform="translate(79,93)"/>
<path d="M0 0 C2.95409701 1.37154504 5.44008376 2.98863724 8 5 C4.12918338 13.75400066 -4.61175355 20.66738496 -11.34106445 27.32202148 C-14.74984766 30.70583923 -17.95644909 34.17860992 -21.0625 37.84375 C-24.30435609 41.4516221 -27.79411115 44.81323546 -31.2421875 48.22265625 C-34.10574117 51.06641577 -36.8887719 53.91875084 -39.5 57 C-43.1645653 61.32418706 -47.21520866 65.24082291 -51.2421875 69.22265625 C-54.10574117 72.06641577 -56.8887719 74.91875084 -59.5 78 C-63.1645653 82.32418706 -67.21520866 86.24082291 -71.2421875 90.22265625 C-74.10574117 93.06641577 -76.8887719 95.91875084 -79.5 99 C-83.1645653 103.32418706 -87.21520866 107.24082291 -91.2421875 111.22265625 C-94.10574117 114.06641577 -96.8887719 116.91875084 -99.5 120 C-103.16389741 124.32339894 -107.21371646 128.23937981 -111.23999023 132.22045898 C-114.67845693 135.63513349 -117.99240197 139.07184834 -120.99761963 142.88201904 C-123 145 -123 145 -125.9118042 146.8916626 C-130.89739641 150.56114854 -134.28358517 153.84852355 -135.69200134 160.04408264 C-136.72583022 168.82286688 -136.55463428 177.66328193 -136.41865635 186.48680019 C-136.37143212 190.37856826 -136.39273022 194.2699818 -136.40643311 198.16192627 C-136.42207608 205.51456393 -136.37703512 212.86549763 -136.30961108 220.2177918 C-136.2357839 228.59521373 -136.23048523 236.97225408 -136.23064089 245.34995031 C-136.22944116 262.56732465 -136.1431647 279.78323242 -136 297 C-139.3 297 -142.6 297 -146 297 C-146.32797374 278.4670925 -146.57436845 259.93477881 -146.72537041 241.39956474 C-146.79736842 232.7919159 -146.89540149 224.18607655 -147.05615234 215.57958984 C-147.19630352 208.07237509 -147.28615455 200.5664712 -147.31723893 193.05798447 C-147.33539472 189.08648174 -147.3776101 185.11872663 -147.48022079 181.14843369 C-148.16100762 153.77187572 -148.16100762 153.77187572 -141.06331062 145.96187019 C-138.69090791 143.79057896 -136.24086585 141.88675979 -133.56816483 140.1007576 C-131.54695836 138.68199196 -130.07433567 137.00367853 -128.5625 135.0625 C-125.10961385 130.97378827 -121.29922582 127.26265524 -117.5 123.5 C-111.82499967 117.91455393 -111.82499967 117.91455393 -106.5 112 C-102.4619844 107.20485648 -97.91874941 102.8954922 -93.46875 98.48828125 C-90.36994552 95.40792204 -87.31670228 92.34483396 -84.5 89 C-80.4619844 84.20485648 -75.91874941 79.8954922 -71.46875 75.48828125 C-68.36994552 72.40792204 -65.31670228 69.34483396 -62.5 66 C-58.4619844 61.20485648 -53.91874941 56.8954922 -49.46875 52.48828125 C-46.36994552 49.40792204 -43.31670228 46.34483396 -40.5 43 C-36.46463785 38.20800745 -31.92470867 33.90129284 -27.47753906 29.49707031 C-23.73363995 25.77553396 -20.14856845 22.00362541 -16.74609375 17.96484375 C-13.52740078 14.34291408 -10.01462279 10.99873316 -6.55078125 7.61328125 C-4.18093268 5.18536595 -2.0672841 2.68698519 0 0 Z " fill="#779CF2" transform="translate(422,93)"/>
<path d="M0 0 C3.50775011 1.75387506 5.18547406 2.93741043 7.85980225 5.61929321 C8.61416061 6.37090225 9.36851898 7.12251129 10.14573669 7.89689636 C10.96357132 8.72192154 11.78140594 9.54694672 12.62402344 10.39697266 C13.49267532 11.26533249 14.36132721 12.13369232 15.25630188 13.02836609 C17.63360473 15.40682287 20.00638497 17.78962826 22.37726498 20.1744771 C24.85740465 22.66712595 27.34321567 25.1541058 29.82843018 27.64169312 C34.53201638 32.35149353 39.23048141 37.06636861 43.92712712 41.78308904 C49.27504045 47.15336318 54.62863925 52.51795407 59.98272276 57.88207555 C70.9948195 68.91507296 81.99975596 79.95518427 93 91 C96.15227151 89.60363479 98.27940382 87.96829025 100.70794678 85.53256226 C101.42864853 84.81460983 102.14935028 84.09665741 102.89189148 83.35694885 C103.67232315 82.56932663 104.45275482 81.78170441 105.25683594 80.97021484 C106.08647354 80.14086929 106.91611115 79.31152374 107.77088928 78.45704651 C110.51348464 75.71305719 113.2489268 72.96205027 115.984375 70.2109375 C117.88338767 68.30708432 119.7839031 66.40473405 121.68438721 64.50234985 C126.17547851 60.00504509 130.66144767 55.50266689 135.14559674 50.99844134 C140.25167538 45.86999956 145.36344159 40.74724302 150.47569227 35.62495494 C160.99013346 25.08961478 171.49741465 14.54716018 182 4 C185.32302186 5.56377499 187.56184007 7.21353151 190 10 C190 10.66 190 11.32 190 12 C188.55891323 13.4221983 188.55891323 13.4221983 186.54917908 15.08390808 C181.87552013 19.06163234 177.54540788 23.31386498 173.21313477 27.6574707 C172.37476578 28.49408737 171.53639679 29.33070404 170.67262268 30.19267273 C167.92637782 32.93454699 165.18377036 35.68002596 162.44140625 38.42578125 C160.52746606 40.33949838 158.6129275 42.25261658 156.69847107 44.16581726 C152.69993359 48.16254295 148.70349293 52.16135617 144.70825195 56.16137695 C140.08845013 60.78664188 135.4650268 65.40826331 130.83974987 70.02805263 C126.85984612 74.00342362 122.88188766 77.98073329 118.90555996 81.95968121 C116.53409283 84.33270735 114.16195506 86.70505248 111.78805733 89.07564735 C109.1499848 91.71119302 106.51511739 94.34990084 103.88110352 96.98950195 C103.09310364 97.7754776 102.30510376 98.56145325 101.4932251 99.37124634 C100.77979446 100.0874968 100.06636383 100.80374725 99.33131409 101.54170227 C98.70843286 102.16496053 98.08555162 102.78821878 97.4437952 103.43036366 C95.90666172 104.9563684 95.90666172 104.9563684 95 107 C90.63026789 105.38448818 87.99572194 101.97290644 84.97021484 98.60131836 C76.09209884 88.90662999 66.78434652 79.65856508 57.4765625 70.37890625 C55.63547101 68.53968483 53.79460387 66.7002388 51.95394897 64.86058044 C47.64614923 60.55617581 43.33613625 56.25399954 39.02497804 51.952959 C34.10615456 47.04542208 29.1902659 42.13494962 24.27458692 37.22426331 C14.18625454 27.14630512 4.09425097 17.07202981 -6 7 C-4.02 4.69 -2.04 2.38 0 0 Z " fill="#779AF2" transform="translate(156,113)"/>
<path d="M0 0 C1.16977059 1.41060571 2.33521014 2.82498822 3.48071289 4.25537109 C5.02396871 6.02752376 6.63237825 7.46947716 8.43359375 8.9765625 C13.65679858 13.48658979 18.50885142 18.35848883 23.37524414 23.24487305 C24.95539644 24.83045796 26.54091976 26.41053442 28.12695312 27.99023438 C29.13573806 28.99967892 30.14421338 30.00943299 31.15234375 31.01953125 C32.05976318 31.92807861 32.96718262 32.83662598 33.90209961 33.77270508 C37.40605395 37.4927767 37.12388333 39.80217821 37.12025452 44.84622192 C37.12110894 45.55846888 37.12196337 46.27071584 37.12284368 47.00454605 C37.12449728 49.40295823 37.11897907 51.80130124 37.11352539 54.19970703 C37.11324347 55.91426593 37.11340135 57.62882496 37.1139679 59.34338379 C37.11425567 64.00841634 37.10836218 68.67342336 37.10139394 73.33844995 C37.09515706 78.20983407 37.09455634 83.08121871 37.09336853 87.9526062 C37.0902562 97.18194634 37.08204414 106.41127468 37.07201904 115.64060962 C37.06085485 126.14589588 37.05534668 136.65118269 37.05032361 147.1564734 C37.03986145 168.77098886 37.02226391 190.38549369 37 212 C33.7 212 30.4 212 27 212 C27.01328213 211.13714764 27.02656425 210.27429527 27.04024887 209.38529587 C27.35772983 188.30691911 27.56263527 167.23000356 27.64509201 146.14934921 C27.68763332 135.95414916 27.76706743 125.76182463 27.93603516 115.56787109 C28.083364 106.67358379 28.15874287 97.78195669 28.15080285 88.88640523 C28.14903681 84.18278141 28.18118491 79.48535997 28.29979706 74.78310394 C29.45708971 51.44311058 29.45708971 51.44311058 19.08366776 31.5251503 C15.71096991 28.36552262 12.2343923 25.50726681 8.48648834 22.80500031 C2.48407896 18.44771031 -2.83035822 13.29888283 -8 8 C-6.48291727 4.46014029 -4.24676932 0 0 0 Z " fill="#7599F2" transform="translate(158,208)"/>
<path d="M0 0 C5.18010355 2.50961538 5.18010355 2.50961538 7 5 C6.58523207 8.43683909 5.28478573 10.06558354 2.83203125 12.42578125 C1.86233398 13.37420898 1.86233398 13.37420898 0.87304688 14.34179688 C0.19306641 14.99212891 -0.48691406 15.64246094 -1.1875 16.3125 C-2.51679856 17.59770476 -3.8436464 18.88544941 -5.16796875 20.17578125 C-5.75860107 20.74208252 -6.3492334 21.30838379 -6.95776367 21.8918457 C-7.63170166 22.58753662 -8.30563965 23.28322754 -9 24 C-9.48997184 24.38085377 -9.97994368 24.76170753 -10.48476315 25.15410233 C-13.60217087 27.97162252 -14.86750307 30.20109134 -15.56144619 34.3853178 C-15.78052138 38.79486731 -15.80849621 43.17047119 -15.77294922 47.58374023 C-15.78112517 49.27934676 -15.79193056 50.97494234 -15.80516052 52.67051697 C-15.83355656 57.26109268 -15.82525791 61.85094983 -15.81029272 66.44156146 C-15.80090446 71.24359264 -15.82537097 76.04544944 -15.84622192 80.84742737 C-15.88055018 89.93499806 -15.88450139 99.02231706 -15.87749684 108.10993963 C-15.87100278 118.45822814 -15.89843711 128.80634006 -15.92869925 139.15457618 C-15.99017638 160.43640373 -16.00911809 181.71809329 -16 203 C-19.3 203 -22.6 203 -26 203 C-26.257342 180.2600053 -26.45112295 157.52025181 -26.56993389 134.7790947 C-26.62657485 124.21909563 -26.70374836 113.66000303 -26.82983398 103.10058594 C-26.93972119 93.89333828 -27.01049818 84.68674727 -27.03497344 75.47886205 C-27.04927397 70.60616175 -27.0827038 65.73533938 -27.16303062 60.8632431 C-27.23814964 56.26945073 -27.26064031 51.67829449 -27.24418449 47.08394623 C-27.24719102 45.40533067 -27.26881189 43.72661966 -27.31126022 42.04853821 C-27.50040918 34.17973041 -27.50576378 27.93285293 -22.19015485 21.74234891 C-19.90595191 19.36202613 -17.47972049 17.17399246 -15 15 C-13.53713181 13.52650905 -12.08276523 12.04442031 -10.64453125 10.546875 C-9.36983465 9.27858391 -8.09257318 8.01286434 -6.8125 6.75 C-6.14669922 6.08871094 -5.48089844 5.42742187 -4.79492188 4.74609375 C-3.19898456 3.16163799 -1.60073368 1.57960724 0 0 Z " fill="#789EF2" transform="translate(342,217)"/>
</svg>
