<?xml version="1.0" standalone="no"?>
<!DOCTYPE svg PUBLIC "-//W3C//DTD SVG 20010904//EN"
 "http://www.w3.org/TR/2001/REC-SVG-20010904/DTD/svg10.dtd">
<svg version="1.0" xmlns="http://www.w3.org/2000/svg"
 width="300.000000pt" height="300.000000pt" viewBox="0 0 300.000000 300.000000"
 preserveAspectRatio="xMidYMid meet">

<g transform="translate(0.000000,300.000000) scale(0.100000,-0.100000)"
fill="#000000" stroke="none">
<path d="M722 2106 c-161 -40 -331 -177 -404 -326 -89 -184 -89 -376 0 -560
54 -111 168 -224 282 -278 47 -22 109 -45 138 -51 73 -15 1451 -15 1524 0 29
6 91 29 138 51 69 33 100 56 165 122 156 157 215 359 169 569 -26 119 -77 211
-169 303 -65 66 -96 89 -165 122 -47 22 -109 45 -138 51 -81 17 -1470 13
-1540 -3z m1483 -241 c102 -17 214 -108 263 -213 23 -49 27 -70 27 -152 0 -82
-4 -103 -27 -152 -137 -293 -549 -293 -686 0 -23 49 -27 70 -27 152 0 82 4
103 27 152 52 111 163 197 279 217 54 9 67 8 144 -4z"/>
</g>
</svg>
