<?xml version="1.0" standalone="no"?>
<!DOCTYPE svg PUBLIC "-//W3C//DTD SVG 20010904//EN"
 "http://www.w3.org/TR/2001/REC-SVG-20010904/DTD/svg10.dtd">
<svg version="1.0" xmlns="http://www.w3.org/2000/svg"
 width="512.000000pt" height="512.000000pt" viewBox="0 0 512.000000 512.000000"
 preserveAspectRatio="xMidYMid meet">

<g transform="translate(0.000000,512.000000) scale(0.100000,-0.100000)"
fill="#000000" stroke="none">
<path d="M1398 3790 c-315 -25 -589 -156 -806 -385 -363 -383 -441 -936 -199
-1409 176 -344 495 -579 887 -653 88 -17 184 -18 1270 -18 928 0 1193 3 1259
13 390 62 724 298 910 644 157 291 187 652 81 970 -123 367 -411 655 -778 778
-196 65 -142 63 -1392 65 -624 2 -1179 -1 -1232 -5z m2367 -330 c357 -51 658
-328 747 -686 17 -70 22 -118 22 -224 -1 -162 -20 -247 -89 -387 -128 -260
-356 -434 -645 -493 -95 -19 -138 -20 -1243 -20 -1256 0 -1220 -2 -1390 60
-164 60 -332 194 -431 344 -99 149 -144 289 -153 471 -12 252 73 478 251 663
135 141 330 244 511 271 86 12 2333 13 2420 1z"/>
<path d="M1356 3233 c-427 -91 -664 -532 -502 -933 31 -79 89 -162 165 -237
51 -50 88 -76 166 -113 120 -58 189 -74 315 -73 182 2 340 70 470 202 134 137
190 264 198 446 8 215 -51 368 -198 516 -73 73 -101 94 -180 132 -152 73 -288
92 -434 60z m278 -346 c77 -35 140 -98 179 -176 28 -58 32 -75 32 -151 0 -76
-4 -93 -32 -151 -39 -79 -102 -140 -181 -177 -49 -23 -70 -27 -147 -27 -76 0
-99 4 -145 26 -73 34 -145 106 -177 176 -32 69 -42 181 -23 249 31 110 131
212 245 248 70 22 179 15 249 -17z"/>
</g>
</svg>
